G04 ================== begin FILE IDENTIFICATION RECORD ==================*
G04 Layout Name:  C:/Users/Noris/Desktop/Layout/P3.brd*
G04 Film Name:    FAB*
G04 File Format:  Gerber RS274X*
G04 File Origin:  Cadence Allegro 17.2-S025*
G04 Origin Date:  Fri Dec 13 17:08:19 2024*
G04 *
G04 Layer:  MANUFACTURING/NCDRILL_LEGEND*
G04 Layer:  MANUFACTURING/NCDRILL_FIGURE*
G04 Layer:  MANUFACTURING/XSECTION_CHART*
G04 Layer:  MANUFACTURING/NCLEGEND-1-2*
G04 Layer:  BOARD GEOMETRY/DIMENSION*
G04 Layer:  BOARD GEOMETRY/DESIGN_OUTLINE*
G04 *
G04 Offset:    (0.0000 0.0000)*
G04 Mirror:    No*
G04 Mode:      Positive*
G04 Rotation:  0*
G04 FullContactRelief:  No*
G04 UndefLineWidth:     0.1000*
G04 ================== end FILE IDENTIFICATION RECORD ====================*
%FSLAX25Y25*MOIN*%
%IR0*IPPOS*OFA0.00000B0.00000*MIA0B0*SFA1.00000B1.00000*%
%AMMACRO10*
1,1,.003937,.025,0.0*
20,1,.003937,.025,0.0,.02462,-.004341,0.0*
1,1,.003937,.02462,-.004341*
20,1,.003937,.02462,-.004341,.023492,-.008551,0.0*
1,1,.003937,.023492,-.008551*
20,1,.003937,.023492,-.008551,.021651,-.0125,0.0*
1,1,.003937,.021651,-.0125*
20,1,.003937,.021651,-.0125,.019151,-.01607,0.0*
1,1,.003937,.019151,-.01607*
20,1,.003937,.019151,-.01607,.01607,-.019151,0.0*
1,1,.003937,.01607,-.019151*
20,1,.003937,.01607,-.019151,.0125,-.021651,0.0*
1,1,.003937,.0125,-.021651*
20,1,.003937,.0125,-.021651,.008551,-.023492,0.0*
1,1,.003937,.008551,-.023492*
20,1,.003937,.008551,-.023492,.004341,-.02462,0.0*
1,1,.003937,.004341,-.02462*
20,1,.003937,.004341,-.02462,0.0,-.025,0.0*
1,1,.003937,0.0,-.025*
20,1,.003937,0.0,-.025,-.004341,-.02462,0.0*
1,1,.003937,-.004341,-.02462*
20,1,.003937,-.004341,-.02462,-.008551,-.023492,0.0*
1,1,.003937,-.008551,-.023492*
20,1,.003937,-.008551,-.023492,-.0125,-.021651,0.0*
1,1,.003937,-.0125,-.021651*
20,1,.003937,-.0125,-.021651,-.01607,-.019151,0.0*
1,1,.003937,-.01607,-.019151*
20,1,.003937,-.01607,-.019151,-.019151,-.01607,0.0*
1,1,.003937,-.019151,-.01607*
20,1,.003937,-.019151,-.01607,-.021651,-.0125,0.0*
1,1,.003937,-.021651,-.0125*
20,1,.003937,-.021651,-.0125,-.023492,-.008551,0.0*
1,1,.003937,-.023492,-.008551*
20,1,.003937,-.023492,-.008551,-.02462,-.004341,0.0*
1,1,.003937,-.02462,-.004341*
20,1,.003937,-.02462,-.004341,-.025,0.0,0.0*
1,1,.003937,-.025,0.0*
20,1,.003937,-.025,0.0,-.02462,.004341,0.0*
1,1,.003937,-.02462,.004341*
20,1,.003937,-.02462,.004341,-.023492,.008551,0.0*
1,1,.003937,-.023492,.008551*
20,1,.003937,-.023492,.008551,-.021651,.0125,0.0*
1,1,.003937,-.021651,.0125*
20,1,.003937,-.021651,.0125,-.019151,.01607,0.0*
1,1,.003937,-.019151,.01607*
20,1,.003937,-.019151,.01607,-.01607,.019151,0.0*
1,1,.003937,-.01607,.019151*
20,1,.003937,-.01607,.019151,-.0125,.021651,0.0*
1,1,.003937,-.0125,.021651*
20,1,.003937,-.0125,.021651,-.008551,.023492,0.0*
1,1,.003937,-.008551,.023492*
20,1,.003937,-.008551,.023492,-.004341,.02462,0.0*
1,1,.003937,-.004341,.02462*
20,1,.003937,-.004341,.02462,0.0,.025,0.0*
1,1,.003937,0.0,.025*
20,1,.003937,0.0,.025,.004341,.02462,0.0*
1,1,.003937,.004341,.02462*
20,1,.003937,.004341,.02462,.008551,.023492,0.0*
1,1,.003937,.008551,.023492*
20,1,.003937,.008551,.023492,.0125,.021651,0.0*
1,1,.003937,.0125,.021651*
20,1,.003937,.0125,.021651,.01607,.019151,0.0*
1,1,.003937,.01607,.019151*
20,1,.003937,.01607,.019151,.019151,.01607,0.0*
1,1,.003937,.019151,.01607*
20,1,.003937,.019151,.01607,.021651,.0125,0.0*
1,1,.003937,.021651,.0125*
20,1,.003937,.021651,.0125,.023492,.008551,0.0*
1,1,.003937,.023492,.008551*
20,1,.003937,.023492,.008551,.02462,.004341,0.0*
1,1,.003937,.02462,.004341*
20,1,.003937,.02462,.004341,.025,0.0,0.0*
1,1,.003937,.025,0.0*
1,1,.003937,.0125,0.0*
20,1,.003937,.0125,0.0,-.0125,0.0,0.0*
1,1,.003937,-.0125,0.0*
1,1,.003937,0.0,.0125*
20,1,.003937,0.0,.0125,0.0,-.0125,0.0*
1,1,.003937,0.0,-.0125*
%
%ADD10MACRO10*%
%ADD11C,.003937*%
G75*
%LPD*%
G75*
G36*
G01X-194917Y176603D02*
Y174335D01*
X-192417D01*
Y-22704D01*
X-194917D01*
Y-24972D01*
X-179917D01*
Y-22704D01*
X-182417D01*
Y174335D01*
X-179917D01*
Y176603D01*
X-194917D01*
G37*
G36*
G01X-214917Y-24971D02*
Y-22704D01*
X-154917D01*
Y-24971D01*
X-214917D01*
G37*
G36*
G01Y174335D02*
Y176603D01*
X-154917D01*
Y174335D01*
X-214917D01*
G37*
G54D10*
X-59381Y-170768D03*
X33465Y86614D03*
X47244Y29528D03*
X62992Y137795D03*
X64961Y27559D03*
X84646Y80709D03*
Y74803D03*
X92520Y110236D03*
Y122835D03*
Y145669D03*
X100394Y137795D03*
X135827Y37402D03*
X141732Y100394D03*
X147638Y137795D03*
G54D11*
G01X-222810Y-42585D02*
Y-38648D01*
X-222023D01*
X-221708Y-38845D01*
X-221472Y-39108D01*
X-221275Y-39502D01*
X-221117Y-39961D01*
X-221078Y-40617D01*
X-221117Y-41273D01*
X-221275Y-41732D01*
X-221472Y-42126D01*
X-221708Y-42389D01*
X-222023Y-42585D01*
X-222810D01*
G01X-218194D02*
X-219769D01*
Y-38648D01*
X-218194D01*
G01X-218824Y-40551D02*
X-219769D01*
G01X-216846Y-42061D02*
X-216531Y-42389D01*
X-216177Y-42585D01*
X-215862D01*
X-215547Y-42389D01*
X-215311Y-42061D01*
X-215193Y-41601D01*
X-215272Y-41142D01*
X-215469Y-40748D01*
X-215823Y-40486D01*
X-216295Y-40354D01*
X-216571Y-40092D01*
X-216689Y-39633D01*
X-216610Y-39173D01*
X-216413Y-38845D01*
X-216138Y-38648D01*
X-215862D01*
X-215587Y-38780D01*
X-215350Y-39108D01*
G01X-213530Y-38648D02*
X-212585D01*
G01X-213057D02*
Y-42585D01*
G01X-213530D02*
X-212585D01*
G01X-209859Y-40617D02*
X-209072D01*
Y-41798D01*
X-209308Y-42192D01*
X-209583Y-42454D01*
X-209977Y-42585D01*
X-210371Y-42454D01*
X-210646Y-42192D01*
X-210883Y-41798D01*
X-211040Y-41339D01*
X-211119Y-40814D01*
Y-40354D01*
X-211040Y-39961D01*
X-210883Y-39502D01*
X-210646Y-39108D01*
X-210410Y-38845D01*
X-210095Y-38648D01*
X-209820D01*
X-209505Y-38780D01*
X-209269Y-39042D01*
G01X-208039Y-42585D02*
Y-38648D01*
X-206228Y-42585D01*
Y-38648D01*
G01X-200343Y-38976D02*
X-200579Y-38780D01*
X-200854Y-38648D01*
X-201169D01*
X-201524Y-38845D01*
X-201799Y-39173D01*
X-201996Y-39567D01*
X-202154Y-40223D01*
X-202193Y-40814D01*
X-202114Y-41404D01*
X-201996Y-41798D01*
X-201760Y-42192D01*
X-201484Y-42454D01*
X-201209Y-42585D01*
X-200933D01*
X-200657Y-42454D01*
X-200421Y-42257D01*
X-200224Y-41995D01*
G01X-199034Y-42585D02*
Y-38648D01*
X-198050D01*
X-197735Y-38845D01*
X-197538Y-39108D01*
X-197459Y-39633D01*
X-197538Y-40157D01*
X-197774Y-40486D01*
X-198050Y-40683D01*
X-199034D01*
G01X-198050D02*
X-197459Y-42585D01*
G01X-195284D02*
X-195599Y-42520D01*
X-195875Y-42257D01*
X-196111Y-41864D01*
X-196269Y-41404D01*
X-196347Y-40880D01*
Y-40354D01*
X-196269Y-39830D01*
X-196111Y-39370D01*
X-195875Y-38976D01*
X-195599Y-38714D01*
X-195284Y-38648D01*
X-194969Y-38714D01*
X-194694Y-38976D01*
X-194457Y-39370D01*
X-194300Y-39830D01*
X-194221Y-40354D01*
Y-40880D01*
X-194300Y-41404D01*
X-194457Y-41864D01*
X-194694Y-42257D01*
X-194969Y-42520D01*
X-195284Y-42585D01*
G01X-193149Y-42061D02*
X-192834Y-42389D01*
X-192480Y-42585D01*
X-192165D01*
X-191850Y-42389D01*
X-191613Y-42061D01*
X-191495Y-41601D01*
X-191574Y-41142D01*
X-191771Y-40748D01*
X-192125Y-40486D01*
X-192598Y-40354D01*
X-192873Y-40092D01*
X-192991Y-39633D01*
X-192913Y-39173D01*
X-192716Y-38845D01*
X-192440Y-38648D01*
X-192165D01*
X-191889Y-38780D01*
X-191653Y-39108D01*
G01X-190187Y-42061D02*
X-189872Y-42389D01*
X-189517Y-42585D01*
X-189202D01*
X-188887Y-42389D01*
X-188651Y-42061D01*
X-188533Y-41601D01*
X-188612Y-41142D01*
X-188809Y-40748D01*
X-189163Y-40486D01*
X-189635Y-40354D01*
X-189911Y-40092D01*
X-190029Y-39633D01*
X-189950Y-39173D01*
X-189754Y-38845D01*
X-189478Y-38648D01*
X-189202D01*
X-188927Y-38780D01*
X-188691Y-39108D01*
G01X-184262Y-42061D02*
X-183947Y-42389D01*
X-183593Y-42585D01*
X-183278D01*
X-182963Y-42389D01*
X-182727Y-42061D01*
X-182609Y-41601D01*
X-182687Y-41142D01*
X-182884Y-40748D01*
X-183239Y-40486D01*
X-183711Y-40354D01*
X-183987Y-40092D01*
X-184105Y-39633D01*
X-184026Y-39173D01*
X-183829Y-38845D01*
X-183554Y-38648D01*
X-183278D01*
X-183002Y-38780D01*
X-182766Y-39108D01*
G01X-179686Y-42585D02*
X-181261D01*
Y-38648D01*
X-179686D01*
G01X-180316Y-40551D02*
X-181261D01*
G01X-176645Y-38976D02*
X-176881Y-38780D01*
X-177157Y-38648D01*
X-177472D01*
X-177826Y-38845D01*
X-178102Y-39173D01*
X-178298Y-39567D01*
X-178456Y-40223D01*
X-178495Y-40814D01*
X-178417Y-41404D01*
X-178298Y-41798D01*
X-178062Y-42192D01*
X-177787Y-42454D01*
X-177511Y-42585D01*
X-177235D01*
X-176960Y-42454D01*
X-176724Y-42257D01*
X-176527Y-41995D01*
G01X-174549Y-38648D02*
Y-42585D01*
G01X-175454Y-38648D02*
X-173643D01*
G01X-172059D02*
X-171114D01*
G01X-171587D02*
Y-42585D01*
G01X-172059D02*
X-171114D01*
G01X-168624D02*
X-168939Y-42520D01*
X-169215Y-42257D01*
X-169451Y-41864D01*
X-169609Y-41404D01*
X-169687Y-40880D01*
Y-40354D01*
X-169609Y-39830D01*
X-169451Y-39370D01*
X-169215Y-38976D01*
X-168939Y-38714D01*
X-168624Y-38648D01*
X-168309Y-38714D01*
X-168034Y-38976D01*
X-167798Y-39370D01*
X-167640Y-39830D01*
X-167561Y-40354D01*
Y-40880D01*
X-167640Y-41404D01*
X-167798Y-41864D01*
X-168034Y-42257D01*
X-168309Y-42520D01*
X-168624Y-42585D01*
G01X-166568D02*
Y-38648D01*
X-164757Y-42585D01*
Y-38648D01*
G01X-158872Y-38976D02*
X-159108Y-38780D01*
X-159383Y-38648D01*
X-159698D01*
X-160053Y-38845D01*
X-160328Y-39173D01*
X-160525Y-39567D01*
X-160683Y-40223D01*
X-160722Y-40814D01*
X-160643Y-41404D01*
X-160525Y-41798D01*
X-160289Y-42192D01*
X-160013Y-42454D01*
X-159738Y-42585D01*
X-159462D01*
X-159187Y-42454D01*
X-158950Y-42257D01*
X-158754Y-41995D01*
G01X-157602Y-42585D02*
Y-38648D01*
G01X-155949D02*
Y-42585D01*
G01Y-40617D02*
X-157602D01*
G01X-154798Y-42585D02*
X-153813Y-38648D01*
X-152829Y-42585D01*
G01X-153183Y-41207D02*
X-154443D01*
G01X-151639Y-42585D02*
Y-38648D01*
X-150654D01*
X-150339Y-38845D01*
X-150143Y-39108D01*
X-150064Y-39633D01*
X-150143Y-40157D01*
X-150379Y-40486D01*
X-150654Y-40683D01*
X-151639D01*
G01X-150654D02*
X-150064Y-42585D01*
G01X-147889Y-38648D02*
Y-42585D01*
G01X-148794Y-38648D02*
X-146983D01*
G01X-224606Y-43898D02*
X-222244D01*
G01X-221644D02*
X-219282D01*
G01X-218682D02*
X-216320D01*
G01X-215720D02*
X-213357D01*
G01X-212757D02*
X-210395D01*
G01X-209795D02*
X-207433D01*
G01X-206833D02*
X-204471D01*
G01X-203871D02*
X-201509D01*
G01X-200909D02*
X-198546D01*
G01X-197946D02*
X-195584D01*
G01X-194984D02*
X-192622D01*
G01X-192022D02*
X-189660D01*
G01X-189060D02*
X-186698D01*
G01X-186098D02*
X-183735D01*
G01X-183135D02*
X-180773D01*
G01X-180173D02*
X-177811D01*
G01X-177211D02*
X-174849D01*
G01X-174249D02*
X-171887D01*
G01X-171287D02*
X-168924D01*
G01X-168324D02*
X-165962D01*
G01X-165362D02*
X-163000D01*
G01X-162400D02*
X-160038D01*
G01X-159438D02*
X-157076D01*
G01X-156476D02*
X-154113D01*
G01X-153513D02*
X-151151D01*
G01X-150551D02*
X-148189D01*
G01X-147589D02*
X-145227D01*
G01X-216020Y-45735D02*
Y-49672D01*
G01X-216925Y-45735D02*
X-215114D01*
G01X-213057Y-49672D02*
X-213372Y-49606D01*
X-213648Y-49344D01*
X-213884Y-48950D01*
X-214042Y-48491D01*
X-214120Y-47966D01*
Y-47441D01*
X-214042Y-46916D01*
X-213884Y-46457D01*
X-213648Y-46063D01*
X-213372Y-45801D01*
X-213057Y-45735D01*
X-212743Y-45801D01*
X-212467Y-46063D01*
X-212231Y-46457D01*
X-212073Y-46916D01*
X-211994Y-47441D01*
Y-47966D01*
X-212073Y-48491D01*
X-212231Y-48950D01*
X-212467Y-49344D01*
X-212743Y-49606D01*
X-213057Y-49672D01*
G01X-210095Y-45735D02*
Y-49672D01*
G01X-211001Y-45735D02*
X-209190D01*
G01X-208117Y-49672D02*
X-207133Y-45735D01*
X-206149Y-49672D01*
G01X-206503Y-48294D02*
X-207763D01*
G01X-204958Y-45735D02*
Y-49672D01*
X-203383D01*
G01X-198246Y-45735D02*
Y-49672D01*
G01X-199152Y-45735D02*
X-197341D01*
G01X-196111Y-49672D02*
Y-45735D01*
G01X-194457D02*
Y-49672D01*
G01Y-47704D02*
X-196111D01*
G01X-192794Y-45735D02*
X-191850D01*
G01X-192322D02*
Y-49672D01*
G01X-192794D02*
X-191850D01*
G01X-188494Y-46063D02*
X-188730Y-45866D01*
X-189006Y-45735D01*
X-189320D01*
X-189675Y-45932D01*
X-189950Y-46260D01*
X-190147Y-46654D01*
X-190305Y-47310D01*
X-190344Y-47900D01*
X-190265Y-48491D01*
X-190147Y-48885D01*
X-189911Y-49278D01*
X-189635Y-49541D01*
X-189360Y-49672D01*
X-189084D01*
X-188809Y-49541D01*
X-188572Y-49344D01*
X-188376Y-49081D01*
G01X-187264Y-49672D02*
Y-45735D01*
G01X-185768D02*
X-187264Y-48163D01*
G01X-185531Y-49672D02*
X-186594Y-47048D01*
G01X-184341Y-49672D02*
Y-45735D01*
X-182530Y-49672D01*
Y-45735D01*
G01X-179686Y-49672D02*
X-181261D01*
Y-45735D01*
X-179686D01*
G01X-180316Y-47638D02*
X-181261D01*
G01X-178338Y-49147D02*
X-178023Y-49475D01*
X-177669Y-49672D01*
X-177354D01*
X-177039Y-49475D01*
X-176802Y-49147D01*
X-176684Y-48688D01*
X-176763Y-48229D01*
X-176960Y-47835D01*
X-177314Y-47572D01*
X-177787Y-47441D01*
X-178062Y-47179D01*
X-178180Y-46719D01*
X-178102Y-46260D01*
X-177905Y-45932D01*
X-177629Y-45735D01*
X-177354D01*
X-177078Y-45866D01*
X-176842Y-46194D01*
G01X-175376Y-49147D02*
X-175061Y-49475D01*
X-174706Y-49672D01*
X-174391D01*
X-174076Y-49475D01*
X-173840Y-49147D01*
X-173722Y-48688D01*
X-173801Y-48229D01*
X-173998Y-47835D01*
X-174352Y-47572D01*
X-174824Y-47441D01*
X-175100Y-47179D01*
X-175218Y-46719D01*
X-175139Y-46260D01*
X-174943Y-45932D01*
X-174667Y-45735D01*
X-174391D01*
X-174116Y-45866D01*
X-173880Y-46194D01*
G01X-168624Y-49672D02*
Y-45735D01*
X-169097Y-46522D01*
G01Y-49672D02*
X-168152D01*
G01X-165662Y-49803D02*
X-165741Y-49738D01*
Y-49606D01*
X-165662Y-49541D01*
X-165583Y-49606D01*
Y-49738D01*
X-165662Y-49803D01*
G01X-163448Y-48032D02*
X-163172Y-47572D01*
X-162936Y-47310D01*
X-162621Y-47179D01*
X-162346Y-47310D01*
X-162149Y-47572D01*
X-161991Y-47966D01*
X-161952Y-48425D01*
X-161991Y-48819D01*
X-162149Y-49213D01*
X-162385Y-49541D01*
X-162661Y-49672D01*
X-162976Y-49541D01*
X-163251Y-49147D01*
X-163409Y-48557D01*
X-163448Y-47900D01*
X-163369Y-47048D01*
X-163251Y-46588D01*
X-163054Y-46129D01*
X-162779Y-45801D01*
X-162503Y-45735D01*
X-162228Y-45866D01*
X-162031Y-46194D01*
G01X-157799Y-49672D02*
Y-45735D01*
X-156776Y-49016D01*
X-155752Y-45735D01*
Y-49672D01*
G01X-154837D02*
Y-45735D01*
X-153813Y-49016D01*
X-152790Y-45735D01*
Y-49672D01*
G01X-187417Y181721D02*
X-191354D01*
X-190566Y181248D01*
G01X-187417D02*
Y182193D01*
G01X-188729Y184171D02*
Y185195D01*
G01X-190697Y186897D02*
X-191091Y187133D01*
X-191288Y187409D01*
X-191354Y187724D01*
X-191222Y188118D01*
X-190894Y188393D01*
X-190500Y188472D01*
X-190107Y188433D01*
X-189779Y188275D01*
X-189122Y187488D01*
X-188663Y187133D01*
X-188007Y186897D01*
X-187417Y186819D01*
Y188472D01*
G01X-151561Y-24016D02*
Y-27953D01*
X-149986D01*
G01X-148559Y-24672D02*
X-148323Y-24279D01*
X-148047Y-24082D01*
X-147732Y-24016D01*
X-147339Y-24147D01*
X-147063Y-24476D01*
X-146984Y-24869D01*
X-147024Y-25263D01*
X-147181Y-25591D01*
X-147969Y-26247D01*
X-148323Y-26706D01*
X-148559Y-27363D01*
X-148638Y-27953D01*
X-146984D01*
G01X-141572Y-25854D02*
X-141414Y-25657D01*
X-141296Y-25329D01*
X-141217Y-24869D01*
X-141296Y-24476D01*
X-141454Y-24213D01*
X-141729Y-24016D01*
X-142792D01*
Y-27953D01*
X-141493D01*
X-141217Y-27691D01*
X-141060Y-27297D01*
X-140981Y-26838D01*
X-141060Y-26378D01*
X-141296Y-25985D01*
X-141572Y-25854D01*
X-142792D01*
G01X-138924Y-27953D02*
X-139239Y-27887D01*
X-139515Y-27625D01*
X-139751Y-27231D01*
X-139909Y-26772D01*
X-139987Y-26247D01*
Y-25722D01*
X-139909Y-25197D01*
X-139751Y-24738D01*
X-139515Y-24344D01*
X-139239Y-24082D01*
X-138924Y-24016D01*
X-138609Y-24082D01*
X-138334Y-24344D01*
X-138098Y-24738D01*
X-137940Y-25197D01*
X-137861Y-25722D01*
Y-26247D01*
X-137940Y-26772D01*
X-138098Y-27231D01*
X-138334Y-27625D01*
X-138609Y-27887D01*
X-138924Y-27953D01*
G01X-135962Y-24016D02*
Y-27953D01*
G01X-136868Y-24016D02*
X-135057D01*
G01X-133000D02*
Y-27953D01*
G01X-133906Y-24016D02*
X-132094D01*
G01X-130038Y-27953D02*
X-130353Y-27887D01*
X-130628Y-27625D01*
X-130865Y-27231D01*
X-131022Y-26772D01*
X-131101Y-26247D01*
Y-25722D01*
X-131022Y-25197D01*
X-130865Y-24738D01*
X-130628Y-24344D01*
X-130353Y-24082D01*
X-130038Y-24016D01*
X-129723Y-24082D01*
X-129447Y-24344D01*
X-129211Y-24738D01*
X-129054Y-25197D01*
X-128975Y-25722D01*
Y-26247D01*
X-129054Y-26772D01*
X-129211Y-27231D01*
X-129447Y-27625D01*
X-129723Y-27887D01*
X-130038Y-27953D01*
G01X-128099D02*
Y-24016D01*
X-127076Y-27297D01*
X-126052Y-24016D01*
Y-27953D01*
G01X-120285Y-24344D02*
X-120521Y-24147D01*
X-120797Y-24016D01*
X-121112D01*
X-121466Y-24213D01*
X-121742Y-24541D01*
X-121939Y-24935D01*
X-122096Y-25591D01*
X-122135Y-26181D01*
X-122057Y-26772D01*
X-121939Y-27166D01*
X-121702Y-27559D01*
X-121427Y-27822D01*
X-121151Y-27953D01*
X-120876D01*
X-120600Y-27822D01*
X-120364Y-27625D01*
X-120167Y-27363D01*
G01X-118189Y-27953D02*
X-118504Y-27887D01*
X-118780Y-27625D01*
X-119016Y-27231D01*
X-119173Y-26772D01*
X-119252Y-26247D01*
Y-25722D01*
X-119173Y-25197D01*
X-119016Y-24738D01*
X-118780Y-24344D01*
X-118504Y-24082D01*
X-118189Y-24016D01*
X-117874Y-24082D01*
X-117598Y-24344D01*
X-117362Y-24738D01*
X-117205Y-25197D01*
X-117126Y-25722D01*
Y-26247D01*
X-117205Y-26772D01*
X-117362Y-27231D01*
X-117598Y-27625D01*
X-117874Y-27887D01*
X-118189Y-27953D01*
G01X-116132D02*
Y-24016D01*
X-114321Y-27953D01*
Y-24016D01*
G01X-113131Y-27953D02*
Y-24016D01*
X-112343D01*
X-112028Y-24213D01*
X-111792Y-24476D01*
X-111595Y-24869D01*
X-111438Y-25329D01*
X-111398Y-25985D01*
X-111438Y-26641D01*
X-111595Y-27100D01*
X-111792Y-27494D01*
X-112028Y-27756D01*
X-112343Y-27953D01*
X-113131D01*
G01X-110169Y-24016D02*
Y-26838D01*
X-110011Y-27428D01*
X-109696Y-27822D01*
X-109302Y-27953D01*
X-108909Y-27822D01*
X-108594Y-27428D01*
X-108436Y-26838D01*
Y-24016D01*
G01X-105474Y-24344D02*
X-105710Y-24147D01*
X-105986Y-24016D01*
X-106301D01*
X-106655Y-24213D01*
X-106931Y-24541D01*
X-107128Y-24935D01*
X-107285Y-25591D01*
X-107324Y-26181D01*
X-107246Y-26772D01*
X-107128Y-27166D01*
X-106891Y-27559D01*
X-106616Y-27822D01*
X-106340Y-27953D01*
X-106065D01*
X-105789Y-27822D01*
X-105553Y-27625D01*
X-105356Y-27363D01*
G01X-103378Y-24016D02*
Y-27953D01*
G01X-104283Y-24016D02*
X-102472D01*
G01X-100416Y-27953D02*
X-100731Y-27887D01*
X-101006Y-27625D01*
X-101243Y-27231D01*
X-101400Y-26772D01*
X-101479Y-26247D01*
Y-25722D01*
X-101400Y-25197D01*
X-101243Y-24738D01*
X-101006Y-24344D01*
X-100731Y-24082D01*
X-100416Y-24016D01*
X-100101Y-24082D01*
X-99825Y-24344D01*
X-99589Y-24738D01*
X-99431Y-25197D01*
X-99353Y-25722D01*
Y-26247D01*
X-99431Y-26772D01*
X-99589Y-27231D01*
X-99825Y-27625D01*
X-100101Y-27887D01*
X-100416Y-27953D01*
G01X-98241D02*
Y-24016D01*
X-97257D01*
X-96942Y-24213D01*
X-96745Y-24476D01*
X-96666Y-25000D01*
X-96745Y-25525D01*
X-96981Y-25854D01*
X-97257Y-26050D01*
X-98241D01*
G01X-97257D02*
X-96666Y-27953D01*
G01X-92041Y-26641D02*
X-91017D01*
G01X-84739Y-24344D02*
X-84975Y-24147D01*
X-85250Y-24016D01*
X-85565D01*
X-85920Y-24213D01*
X-86195Y-24541D01*
X-86392Y-24935D01*
X-86550Y-25591D01*
X-86589Y-26181D01*
X-86510Y-26772D01*
X-86392Y-27166D01*
X-86156Y-27559D01*
X-85880Y-27822D01*
X-85605Y-27953D01*
X-85329D01*
X-85054Y-27822D01*
X-84817Y-27625D01*
X-84620Y-27363D01*
G01X-82643Y-27953D02*
X-82957Y-27887D01*
X-83233Y-27625D01*
X-83469Y-27231D01*
X-83627Y-26772D01*
X-83706Y-26247D01*
Y-25722D01*
X-83627Y-25197D01*
X-83469Y-24738D01*
X-83233Y-24344D01*
X-82957Y-24082D01*
X-82643Y-24016D01*
X-82328Y-24082D01*
X-82052Y-24344D01*
X-81816Y-24738D01*
X-81658Y-25197D01*
X-81580Y-25722D01*
Y-26247D01*
X-81658Y-26772D01*
X-81816Y-27231D01*
X-82052Y-27625D01*
X-82328Y-27887D01*
X-82643Y-27953D01*
G01X-80468D02*
Y-24016D01*
X-79523D01*
X-79208Y-24213D01*
X-78972Y-24672D01*
X-78893Y-25197D01*
X-78972Y-25722D01*
X-79169Y-26116D01*
X-79523Y-26313D01*
X-80468D01*
G01X-77506Y-27953D02*
Y-24016D01*
X-76561D01*
X-76246Y-24213D01*
X-76009Y-24672D01*
X-75931Y-25197D01*
X-76009Y-25722D01*
X-76206Y-26116D01*
X-76561Y-26313D01*
X-77506D01*
G01X-72969Y-27953D02*
X-74543D01*
Y-24016D01*
X-72969D01*
G01X-73598Y-25919D02*
X-74543D01*
G01X-71581Y-27953D02*
Y-24016D01*
X-70597D01*
X-70282Y-24213D01*
X-70085Y-24476D01*
X-70006Y-25000D01*
X-70085Y-25525D01*
X-70321Y-25854D01*
X-70597Y-26050D01*
X-71581D01*
G01X-70597D02*
X-70006Y-27953D01*
G01X-64869Y-24016D02*
X-65184Y-24147D01*
X-65420Y-24476D01*
X-65578Y-24869D01*
X-65696Y-25394D01*
X-65735Y-25985D01*
X-65696Y-26575D01*
X-65578Y-27100D01*
X-65420Y-27494D01*
X-65184Y-27822D01*
X-64869Y-27953D01*
X-64554Y-27822D01*
X-64318Y-27494D01*
X-64161Y-27100D01*
X-64043Y-26575D01*
X-64003Y-25985D01*
X-64043Y-25394D01*
X-64161Y-24869D01*
X-64318Y-24476D01*
X-64554Y-24147D01*
X-64869Y-24016D01*
G01X-61907Y-28084D02*
X-61986Y-28019D01*
Y-27887D01*
X-61907Y-27822D01*
X-61828Y-27887D01*
Y-28019D01*
X-61907Y-28084D01*
G01X-58945Y-24016D02*
X-59260Y-24147D01*
X-59496Y-24476D01*
X-59654Y-24869D01*
X-59772Y-25394D01*
X-59811Y-25985D01*
X-59772Y-26575D01*
X-59654Y-27100D01*
X-59496Y-27494D01*
X-59260Y-27822D01*
X-58945Y-27953D01*
X-58630Y-27822D01*
X-58394Y-27494D01*
X-58236Y-27100D01*
X-58118Y-26575D01*
X-58079Y-25985D01*
X-58118Y-25394D01*
X-58236Y-24869D01*
X-58394Y-24476D01*
X-58630Y-24147D01*
X-58945Y-24016D01*
G01X-55983Y-27953D02*
Y-24016D01*
X-56455Y-24804D01*
G01Y-27953D02*
X-55510D01*
G01X-53020D02*
X-52745Y-27887D01*
X-52430Y-27691D01*
X-52233Y-27363D01*
X-52154Y-26903D01*
X-52233Y-26444D01*
X-52469Y-26050D01*
X-52824Y-25854D01*
X-53217D01*
X-53454Y-25722D01*
X-53650Y-25394D01*
X-53729Y-24935D01*
X-53611Y-24476D01*
X-53335Y-24147D01*
X-53020Y-24016D01*
X-52706Y-24147D01*
X-52430Y-24476D01*
X-52312Y-24935D01*
X-52391Y-25394D01*
X-52587Y-25722D01*
X-52824Y-25854D01*
X-53217D01*
X-53572Y-26050D01*
X-53808Y-26444D01*
X-53887Y-26903D01*
X-53808Y-27363D01*
X-53611Y-27691D01*
X-53296Y-27887D01*
X-53020Y-27953D01*
G01X-48120D02*
Y-24016D01*
X-47096Y-27297D01*
X-46072Y-24016D01*
Y-27953D01*
G01X-45157D02*
Y-24016D01*
X-44134Y-27297D01*
X-43110Y-24016D01*
Y-27953D01*
G01X-145715Y-33333D02*
X-143983Y-30446D01*
G01X-144849Y-29922D02*
Y-33859D01*
G01X-143983Y-33333D02*
X-145715Y-30446D01*
G01X-146030Y-31890D02*
X-143668D01*
G01X-136789Y-32678D02*
X-136474Y-33006D01*
X-136120Y-33202D01*
X-135805D01*
X-135490Y-33006D01*
X-135254Y-32678D01*
X-135135Y-32218D01*
X-135214Y-31759D01*
X-135411Y-31365D01*
X-135765Y-31103D01*
X-136238Y-30971D01*
X-136513Y-30709D01*
X-136631Y-30250D01*
X-136553Y-29790D01*
X-136356Y-29462D01*
X-136080Y-29265D01*
X-135805D01*
X-135529Y-29396D01*
X-135293Y-29725D01*
G01X-133866Y-29265D02*
Y-32087D01*
X-133709Y-32678D01*
X-133394Y-33071D01*
X-133000Y-33202D01*
X-132606Y-33071D01*
X-132291Y-32678D01*
X-132134Y-32087D01*
Y-29265D01*
G01X-130825Y-33202D02*
Y-29265D01*
X-129841D01*
X-129526Y-29462D01*
X-129329Y-29725D01*
X-129250Y-30250D01*
X-129329Y-30774D01*
X-129565Y-31103D01*
X-129841Y-31300D01*
X-130825D01*
G01X-129841D02*
X-129250Y-33202D01*
G01X-127824D02*
Y-29265D01*
X-126328D01*
G01X-126879Y-31168D02*
X-127824D01*
G01X-125098Y-33202D02*
X-124113Y-29265D01*
X-123129Y-33202D01*
G01X-123483Y-31824D02*
X-124743D01*
G01X-120285Y-29593D02*
X-120521Y-29396D01*
X-120797Y-29265D01*
X-121112D01*
X-121466Y-29462D01*
X-121742Y-29790D01*
X-121939Y-30184D01*
X-122096Y-30840D01*
X-122135Y-31431D01*
X-122057Y-32021D01*
X-121939Y-32415D01*
X-121702Y-32809D01*
X-121427Y-33071D01*
X-121151Y-33202D01*
X-120876D01*
X-120600Y-33071D01*
X-120364Y-32874D01*
X-120167Y-32612D01*
G01X-117402Y-33202D02*
X-118976D01*
Y-29265D01*
X-117402D01*
G01X-118031Y-31168D02*
X-118976D01*
G01X-112776Y-31890D02*
X-111753D01*
G01X-107324Y-33202D02*
X-106340Y-29265D01*
X-105356Y-33202D01*
G01X-105710Y-31824D02*
X-106970D01*
G01X-103850Y-29265D02*
X-102906D01*
G01X-103378D02*
Y-33202D01*
G01X-103850D02*
X-102906D01*
G01X-101203D02*
Y-29265D01*
X-100219D01*
X-99904Y-29462D01*
X-99707Y-29725D01*
X-99628Y-30250D01*
X-99707Y-30774D01*
X-99943Y-31103D01*
X-100219Y-31300D01*
X-101203D01*
G01X-100219D02*
X-99628Y-33202D01*
G01X-94491Y-29265D02*
X-94806Y-29396D01*
X-95043Y-29725D01*
X-95200Y-30119D01*
X-95318Y-30643D01*
X-95357Y-31234D01*
X-95318Y-31824D01*
X-95200Y-32349D01*
X-95043Y-32743D01*
X-94806Y-33071D01*
X-94491Y-33202D01*
X-94176Y-33071D01*
X-93940Y-32743D01*
X-93783Y-32349D01*
X-93665Y-31824D01*
X-93625Y-31234D01*
X-93665Y-30643D01*
X-93783Y-30119D01*
X-93940Y-29725D01*
X-94176Y-29396D01*
X-94491Y-29265D01*
G01X-89591Y-33202D02*
Y-29265D01*
X-88567Y-32546D01*
X-87543Y-29265D01*
Y-33202D01*
G01X-86628D02*
Y-29265D01*
X-85605Y-32546D01*
X-84581Y-29265D01*
Y-33202D01*
G01X-145715Y75685D02*
X-143983Y78572D01*
G01X-144849Y79096D02*
Y75159D01*
G01X-143983Y75685D02*
X-145715Y78572D01*
G01X-146030Y77128D02*
X-143668D01*
G01X-136828Y75816D02*
Y79753D01*
X-136041D01*
X-135726Y79556D01*
X-135490Y79293D01*
X-135293Y78900D01*
X-135135Y78440D01*
X-135096Y77784D01*
X-135135Y77128D01*
X-135293Y76669D01*
X-135490Y76275D01*
X-135726Y76013D01*
X-136041Y75816D01*
X-136828D01*
G01X-133472Y79753D02*
X-132528D01*
G01X-133000D02*
Y75816D01*
G01X-133472D02*
X-132528D01*
G01X-129250D02*
X-130825D01*
Y79753D01*
X-129250D01*
G01X-129880Y77850D02*
X-130825D01*
G01X-127863Y79753D02*
Y75816D01*
X-126288D01*
G01X-123326D02*
X-124901D01*
Y79753D01*
X-123326D01*
G01X-123956Y77850D02*
X-124901D01*
G01X-120285Y79425D02*
X-120521Y79622D01*
X-120797Y79753D01*
X-121112D01*
X-121466Y79556D01*
X-121742Y79228D01*
X-121939Y78834D01*
X-122096Y78178D01*
X-122135Y77587D01*
X-122057Y76997D01*
X-121939Y76603D01*
X-121702Y76209D01*
X-121427Y75947D01*
X-121151Y75816D01*
X-120876D01*
X-120600Y75947D01*
X-120364Y76144D01*
X-120167Y76406D01*
G01X-118189Y79753D02*
Y75816D01*
G01X-119094Y79753D02*
X-117283D01*
G01X-116014Y75816D02*
Y79753D01*
X-115030D01*
X-114715Y79556D01*
X-114518Y79293D01*
X-114439Y78769D01*
X-114518Y78244D01*
X-114754Y77915D01*
X-115030Y77719D01*
X-116014D01*
G01X-115030D02*
X-114439Y75816D01*
G01X-112737Y79753D02*
X-111792D01*
G01X-112265D02*
Y75816D01*
G01X-112737D02*
X-111792D01*
G01X-108436Y79425D02*
X-108672Y79622D01*
X-108948Y79753D01*
X-109263D01*
X-109617Y79556D01*
X-109893Y79228D01*
X-110090Y78834D01*
X-110247Y78178D01*
X-110287Y77587D01*
X-110208Y76997D01*
X-110090Y76603D01*
X-109854Y76209D01*
X-109578Y75947D01*
X-109302Y75816D01*
X-109027D01*
X-108751Y75947D01*
X-108515Y76144D01*
X-108318Y76406D01*
G01X-103890Y77128D02*
X-102866D01*
G01X-98202Y75816D02*
Y79753D01*
X-96706D01*
G01X-97257Y77850D02*
X-98202D01*
G01X-95279Y75816D02*
Y79753D01*
X-94294D01*
X-93980Y79556D01*
X-93783Y79293D01*
X-93704Y78769D01*
X-93783Y78244D01*
X-94019Y77915D01*
X-94294Y77719D01*
X-95279D01*
G01X-94294D02*
X-93704Y75816D01*
G01X-92041Y77128D02*
X-91017D01*
G01X-88094Y75816D02*
Y79753D01*
X-89551Y76931D01*
X-87583D01*
G01X-82643Y75816D02*
Y79753D01*
X-83115Y78965D01*
G01Y75816D02*
X-82170D01*
G01X-79680Y75685D02*
X-79759Y75750D01*
Y75881D01*
X-79680Y75947D01*
X-79602Y75881D01*
Y75750D01*
X-79680Y75685D01*
G01X-77584Y76406D02*
X-77348Y76078D01*
X-77072Y75881D01*
X-76718Y75816D01*
X-76364Y75947D01*
X-76088Y76209D01*
X-75891Y76669D01*
X-75852Y77194D01*
X-75931Y77719D01*
X-76128Y78047D01*
X-76403Y78309D01*
X-76679Y78375D01*
X-76954Y78309D01*
X-77309Y78047D01*
X-77191Y79753D01*
X-76128D01*
G01X-74504Y77456D02*
X-74228Y77915D01*
X-73992Y78178D01*
X-73677Y78309D01*
X-73402Y78178D01*
X-73205Y77915D01*
X-73047Y77522D01*
X-73008Y77063D01*
X-73047Y76669D01*
X-73205Y76275D01*
X-73441Y75947D01*
X-73717Y75816D01*
X-74031Y75947D01*
X-74307Y76341D01*
X-74465Y76931D01*
X-74504Y77587D01*
X-74425Y78440D01*
X-74307Y78900D01*
X-74110Y79359D01*
X-73835Y79687D01*
X-73559Y79753D01*
X-73283Y79622D01*
X-73087Y79293D01*
G01X-70321Y75816D02*
Y79753D01*
X-71778Y76931D01*
X-69809D01*
G01X-65893Y75816D02*
Y79753D01*
X-64869Y76472D01*
X-63846Y79753D01*
Y75816D01*
G01X-62931D02*
Y79753D01*
X-61907Y76472D01*
X-60883Y79753D01*
Y75816D01*
G01X-151561Y175291D02*
Y171354D01*
X-149986D01*
G01X-147811D02*
Y175291D01*
X-148283Y174503D01*
G01Y171354D02*
X-147339D01*
G01X-141887Y175291D02*
Y171354D01*
G01X-142792Y175291D02*
X-140981D01*
G01X-138924Y171354D02*
X-139239Y171419D01*
X-139515Y171681D01*
X-139751Y172075D01*
X-139909Y172535D01*
X-139987Y173059D01*
Y173585D01*
X-139909Y174109D01*
X-139751Y174569D01*
X-139515Y174963D01*
X-139239Y175225D01*
X-138924Y175291D01*
X-138609Y175225D01*
X-138334Y174963D01*
X-138098Y174569D01*
X-137940Y174109D01*
X-137861Y173585D01*
Y173059D01*
X-137940Y172535D01*
X-138098Y172075D01*
X-138334Y171681D01*
X-138609Y171419D01*
X-138924Y171354D01*
G01X-136750D02*
Y175291D01*
X-135805D01*
X-135490Y175094D01*
X-135254Y174634D01*
X-135175Y174109D01*
X-135254Y173585D01*
X-135450Y173191D01*
X-135805Y172994D01*
X-136750D01*
G01X-129172Y174963D02*
X-129408Y175159D01*
X-129683Y175291D01*
X-129998D01*
X-130353Y175094D01*
X-130628Y174766D01*
X-130825Y174372D01*
X-130983Y173716D01*
X-131022Y173125D01*
X-130943Y172535D01*
X-130825Y172141D01*
X-130589Y171747D01*
X-130313Y171485D01*
X-130038Y171354D01*
X-129762D01*
X-129487Y171485D01*
X-129250Y171681D01*
X-129054Y171944D01*
G01X-127076Y171354D02*
X-127391Y171419D01*
X-127666Y171681D01*
X-127902Y172075D01*
X-128060Y172535D01*
X-128139Y173059D01*
Y173585D01*
X-128060Y174109D01*
X-127902Y174569D01*
X-127666Y174963D01*
X-127391Y175225D01*
X-127076Y175291D01*
X-126761Y175225D01*
X-126485Y174963D01*
X-126249Y174569D01*
X-126091Y174109D01*
X-126013Y173585D01*
Y173059D01*
X-126091Y172535D01*
X-126249Y172075D01*
X-126485Y171681D01*
X-126761Y171419D01*
X-127076Y171354D01*
G01X-125019D02*
Y175291D01*
X-123208Y171354D01*
Y175291D01*
G01X-122017Y171354D02*
Y175291D01*
X-121230D01*
X-120915Y175094D01*
X-120679Y174831D01*
X-120482Y174437D01*
X-120324Y173978D01*
X-120285Y173322D01*
X-120324Y172666D01*
X-120482Y172207D01*
X-120679Y171813D01*
X-120915Y171550D01*
X-121230Y171354D01*
X-122017D01*
G01X-119055Y175291D02*
Y172469D01*
X-118898Y171878D01*
X-118583Y171485D01*
X-118189Y171354D01*
X-117795Y171485D01*
X-117480Y171878D01*
X-117323Y172469D01*
Y175291D01*
G01X-114361Y174963D02*
X-114597Y175159D01*
X-114872Y175291D01*
X-115187D01*
X-115542Y175094D01*
X-115817Y174766D01*
X-116014Y174372D01*
X-116172Y173716D01*
X-116211Y173125D01*
X-116132Y172535D01*
X-116014Y172141D01*
X-115778Y171747D01*
X-115502Y171485D01*
X-115227Y171354D01*
X-114951D01*
X-114676Y171485D01*
X-114439Y171681D01*
X-114243Y171944D01*
G01X-112265Y175291D02*
Y171354D01*
G01X-113170Y175291D02*
X-111359D01*
G01X-109302Y171354D02*
X-109617Y171419D01*
X-109893Y171681D01*
X-110129Y172075D01*
X-110287Y172535D01*
X-110365Y173059D01*
Y173585D01*
X-110287Y174109D01*
X-110129Y174569D01*
X-109893Y174963D01*
X-109617Y175225D01*
X-109302Y175291D01*
X-108987Y175225D01*
X-108712Y174963D01*
X-108476Y174569D01*
X-108318Y174109D01*
X-108239Y173585D01*
Y173059D01*
X-108318Y172535D01*
X-108476Y172075D01*
X-108712Y171681D01*
X-108987Y171419D01*
X-109302Y171354D01*
G01X-107128D02*
Y175291D01*
X-106143D01*
X-105828Y175094D01*
X-105631Y174831D01*
X-105553Y174306D01*
X-105631Y173781D01*
X-105868Y173453D01*
X-106143Y173256D01*
X-107128D01*
G01X-106143D02*
X-105553Y171354D01*
G01X-100928Y172666D02*
X-99904D01*
G01X-93625Y174963D02*
X-93861Y175159D01*
X-94137Y175291D01*
X-94452D01*
X-94806Y175094D01*
X-95082Y174766D01*
X-95279Y174372D01*
X-95436Y173716D01*
X-95476Y173125D01*
X-95397Y172535D01*
X-95279Y172141D01*
X-95043Y171747D01*
X-94767Y171485D01*
X-94491Y171354D01*
X-94216D01*
X-93940Y171485D01*
X-93704Y171681D01*
X-93507Y171944D01*
G01X-91529Y171354D02*
X-91844Y171419D01*
X-92120Y171681D01*
X-92356Y172075D01*
X-92513Y172535D01*
X-92592Y173059D01*
Y173585D01*
X-92513Y174109D01*
X-92356Y174569D01*
X-92120Y174963D01*
X-91844Y175225D01*
X-91529Y175291D01*
X-91214Y175225D01*
X-90939Y174963D01*
X-90702Y174569D01*
X-90545Y174109D01*
X-90466Y173585D01*
Y173059D01*
X-90545Y172535D01*
X-90702Y172075D01*
X-90939Y171681D01*
X-91214Y171419D01*
X-91529Y171354D01*
G01X-89354D02*
Y175291D01*
X-88409D01*
X-88094Y175094D01*
X-87858Y174634D01*
X-87780Y174109D01*
X-87858Y173585D01*
X-88055Y173191D01*
X-88409Y172994D01*
X-89354D01*
G01X-86392Y171354D02*
Y175291D01*
X-85447D01*
X-85132Y175094D01*
X-84896Y174634D01*
X-84817Y174109D01*
X-84896Y173585D01*
X-85093Y173191D01*
X-85447Y172994D01*
X-86392D01*
G01X-81855Y171354D02*
X-83430D01*
Y175291D01*
X-81855D01*
G01X-82485Y173388D02*
X-83430D01*
G01X-80468Y171354D02*
Y175291D01*
X-79483D01*
X-79169Y175094D01*
X-78972Y174831D01*
X-78893Y174306D01*
X-78972Y173781D01*
X-79208Y173453D01*
X-79483Y173256D01*
X-80468D01*
G01X-79483D02*
X-78893Y171354D01*
G01X-73756Y175291D02*
X-74071Y175159D01*
X-74307Y174831D01*
X-74465Y174437D01*
X-74583Y173913D01*
X-74622Y173322D01*
X-74583Y172731D01*
X-74465Y172207D01*
X-74307Y171813D01*
X-74071Y171485D01*
X-73756Y171354D01*
X-73441Y171485D01*
X-73205Y171813D01*
X-73047Y172207D01*
X-72929Y172731D01*
X-72890Y173322D01*
X-72929Y173913D01*
X-73047Y174437D01*
X-73205Y174831D01*
X-73441Y175159D01*
X-73756Y175291D01*
G01X-70794Y171222D02*
X-70872Y171288D01*
Y171419D01*
X-70794Y171485D01*
X-70715Y171419D01*
Y171288D01*
X-70794Y171222D01*
G01X-67831Y175291D02*
X-68146Y175159D01*
X-68383Y174831D01*
X-68540Y174437D01*
X-68658Y173913D01*
X-68698Y173322D01*
X-68658Y172731D01*
X-68540Y172207D01*
X-68383Y171813D01*
X-68146Y171485D01*
X-67831Y171354D01*
X-67517Y171485D01*
X-67280Y171813D01*
X-67123Y172207D01*
X-67005Y172731D01*
X-66965Y173322D01*
X-67005Y173913D01*
X-67123Y174437D01*
X-67280Y174831D01*
X-67517Y175159D01*
X-67831Y175291D01*
G01X-64869Y171354D02*
Y175291D01*
X-65342Y174503D01*
G01Y171354D02*
X-64397D01*
G01X-61907D02*
X-61631Y171419D01*
X-61317Y171616D01*
X-61120Y171944D01*
X-61041Y172404D01*
X-61120Y172863D01*
X-61356Y173256D01*
X-61710Y173453D01*
X-62104D01*
X-62340Y173585D01*
X-62537Y173913D01*
X-62616Y174372D01*
X-62498Y174831D01*
X-62222Y175159D01*
X-61907Y175291D01*
X-61592Y175159D01*
X-61317Y174831D01*
X-61198Y174372D01*
X-61277Y173913D01*
X-61474Y173585D01*
X-61710Y173453D01*
X-62104D01*
X-62458Y173256D01*
X-62694Y172863D01*
X-62773Y172404D01*
X-62694Y171944D01*
X-62498Y171616D01*
X-62183Y171419D01*
X-61907Y171354D01*
G01X-57006D02*
Y175291D01*
X-55983Y172010D01*
X-54959Y175291D01*
Y171354D01*
G01X-54044D02*
Y175291D01*
X-53020Y172010D01*
X-51997Y175291D01*
Y171354D01*
G01X-145715Y177784D02*
X-143983Y180671D01*
G01X-144849Y181196D02*
Y177259D01*
G01X-143983Y177784D02*
X-145715Y180671D01*
G01X-146030Y179227D02*
X-143668D01*
G01X-136789Y178440D02*
X-136474Y178112D01*
X-136120Y177915D01*
X-135805D01*
X-135490Y178112D01*
X-135254Y178440D01*
X-135135Y178899D01*
X-135214Y179358D01*
X-135411Y179752D01*
X-135765Y180015D01*
X-136238Y180146D01*
X-136513Y180408D01*
X-136631Y180868D01*
X-136553Y181327D01*
X-136356Y181655D01*
X-136080Y181852D01*
X-135805D01*
X-135529Y181721D01*
X-135293Y181393D01*
G01X-133866Y181852D02*
Y179030D01*
X-133709Y178440D01*
X-133394Y178046D01*
X-133000Y177915D01*
X-132606Y178046D01*
X-132291Y178440D01*
X-132134Y179030D01*
Y181852D01*
G01X-130825Y177915D02*
Y181852D01*
X-129841D01*
X-129526Y181655D01*
X-129329Y181393D01*
X-129250Y180868D01*
X-129329Y180343D01*
X-129565Y180015D01*
X-129841Y179818D01*
X-130825D01*
G01X-129841D02*
X-129250Y177915D01*
G01X-127824D02*
Y181852D01*
X-126328D01*
G01X-126879Y179949D02*
X-127824D01*
G01X-125098Y177915D02*
X-124113Y181852D01*
X-123129Y177915D01*
G01X-123483Y179293D02*
X-124743D01*
G01X-120285Y181524D02*
X-120521Y181721D01*
X-120797Y181852D01*
X-121112D01*
X-121466Y181655D01*
X-121742Y181327D01*
X-121939Y180933D01*
X-122096Y180277D01*
X-122135Y179687D01*
X-122057Y179096D01*
X-121939Y178702D01*
X-121702Y178309D01*
X-121427Y178046D01*
X-121151Y177915D01*
X-120876D01*
X-120600Y178046D01*
X-120364Y178243D01*
X-120167Y178506D01*
G01X-117402Y177915D02*
X-118976D01*
Y181852D01*
X-117402D01*
G01X-118031Y179949D02*
X-118976D01*
G01X-112776Y179227D02*
X-111753D01*
G01X-107324Y177915D02*
X-106340Y181852D01*
X-105356Y177915D01*
G01X-105710Y179293D02*
X-106970D01*
G01X-103850Y181852D02*
X-102906D01*
G01X-103378D02*
Y177915D01*
G01X-103850D02*
X-102906D01*
G01X-101203D02*
Y181852D01*
X-100219D01*
X-99904Y181655D01*
X-99707Y181393D01*
X-99628Y180868D01*
X-99707Y180343D01*
X-99943Y180015D01*
X-100219Y179818D01*
X-101203D01*
G01X-100219D02*
X-99628Y177915D01*
G01X-94491Y181852D02*
X-94806Y181721D01*
X-95043Y181393D01*
X-95200Y180999D01*
X-95318Y180474D01*
X-95357Y179883D01*
X-95318Y179293D01*
X-95200Y178768D01*
X-95043Y178374D01*
X-94806Y178046D01*
X-94491Y177915D01*
X-94176Y178046D01*
X-93940Y178374D01*
X-93783Y178768D01*
X-93665Y179293D01*
X-93625Y179883D01*
X-93665Y180474D01*
X-93783Y180999D01*
X-93940Y181393D01*
X-94176Y181721D01*
X-94491Y181852D01*
G01X-89591Y177915D02*
Y181852D01*
X-88567Y178571D01*
X-87543Y181852D01*
Y177915D01*
G01X-86628D02*
Y181852D01*
X-85605Y178571D01*
X-84581Y181852D01*
Y177915D01*
G01X-214917Y-22704D02*
Y174335D01*
X-154917D01*
Y-22704D01*
X-214917D01*
G01X-104331Y-183268D02*
Y-82677D01*
X391669D01*
Y-183268D01*
X-104331D01*
G01X-93326Y-152018D02*
Y-139518D01*
X-87435D01*
G01X-89606Y-145559D02*
X-93326D01*
G01X-79841Y-139518D02*
X-76121D01*
G01X-77981D02*
Y-152018D01*
G01X-79841D02*
X-76121D01*
G01X-64651Y-145768D02*
X-61550D01*
Y-149518D01*
X-62481Y-150768D01*
X-63566Y-151601D01*
X-65116Y-152018D01*
X-66666Y-151601D01*
X-67751Y-150768D01*
X-68681Y-149518D01*
X-69301Y-148059D01*
X-69611Y-146393D01*
Y-144934D01*
X-69301Y-143685D01*
X-68681Y-142226D01*
X-67751Y-140976D01*
X-66821Y-140143D01*
X-65581Y-139518D01*
X-64496D01*
X-63256Y-139934D01*
X-62326Y-140768D01*
G01X-56591Y-139518D02*
Y-148476D01*
X-55971Y-150352D01*
X-54731Y-151601D01*
X-53181Y-152018D01*
X-51631Y-151601D01*
X-50391Y-150352D01*
X-49771Y-148476D01*
Y-139518D01*
G01X-43881Y-152018D02*
Y-139518D01*
X-40006D01*
X-38766Y-140143D01*
X-37991Y-140976D01*
X-37681Y-142643D01*
X-37991Y-144309D01*
X-38921Y-145351D01*
X-40006Y-145976D01*
X-43881D01*
G01X-40006D02*
X-37681Y-152018D01*
G01X-25281D02*
X-31481D01*
Y-139518D01*
X-25281D01*
G01X-27761Y-145559D02*
X-31481D01*
G01X-104331Y-133268D02*
X391669D01*
G01X-104331Y-158268D02*
X391669D01*
G01X-104331Y-108268D02*
X391669D01*
G01X-27606Y-127018D02*
X-23731Y-114518D01*
X-19856Y-127018D01*
G01X-21251Y-122643D02*
X-26211D01*
G01X-14431Y-114518D02*
Y-127018D01*
X-8231D01*
G01X-2031Y-114518D02*
Y-127018D01*
X4169D01*
G01X22459Y-114518D02*
Y-123476D01*
X23079Y-125352D01*
X24319Y-126601D01*
X25869Y-127018D01*
X27419Y-126601D01*
X28659Y-125352D01*
X29279Y-123476D01*
Y-114518D01*
G01X34704Y-127018D02*
Y-114518D01*
X41834Y-127018D01*
Y-114518D01*
G01X48809D02*
X52529D01*
G01X50669D02*
Y-127018D01*
G01X48809D02*
X52529D01*
G01X63069Y-114518D02*
Y-127018D01*
G01X59504Y-114518D02*
X66634D01*
G01X72214Y-125352D02*
X73454Y-126393D01*
X74849Y-127018D01*
X76089D01*
X77329Y-126393D01*
X78259Y-125352D01*
X78724Y-123893D01*
X78415Y-122435D01*
X77639Y-121185D01*
X76244Y-120351D01*
X74384Y-119934D01*
X73299Y-119101D01*
X72834Y-117643D01*
X73144Y-116184D01*
X73919Y-115143D01*
X75004Y-114518D01*
X76089D01*
X77174Y-114934D01*
X78104Y-115976D01*
G01X96394Y-127018D02*
X100269Y-114518D01*
X104144Y-127018D01*
G01X102749Y-122643D02*
X97789D01*
G01X109569Y-127018D02*
Y-114518D01*
X113444D01*
X114684Y-115143D01*
X115459Y-115976D01*
X115769Y-117643D01*
X115459Y-119309D01*
X114529Y-120351D01*
X113444Y-120976D01*
X109569D01*
G01X113444D02*
X115769Y-127018D01*
G01X128169D02*
X121969D01*
Y-114518D01*
X128169D01*
G01X125689Y-120559D02*
X121969D01*
G01X148009Y-114518D02*
X151729D01*
G01X149869D02*
Y-127018D01*
G01X148009D02*
X151729D01*
G01X158704D02*
Y-114518D01*
X165834Y-127018D01*
Y-114518D01*
G01X183039Y-127018D02*
Y-114518D01*
X187069Y-124934D01*
X191100Y-114518D01*
Y-127018D01*
G01X197609Y-114518D02*
X201329D01*
G01X199469D02*
Y-127018D01*
G01X197609D02*
X201329D01*
G01X208769Y-114518D02*
Y-127018D01*
X214969D01*
G01X221169Y-114518D02*
Y-127018D01*
X227369D01*
G01X234809Y-114518D02*
X238529D01*
G01X236669D02*
Y-127018D01*
G01X234809D02*
X238529D01*
G01X245039D02*
Y-114518D01*
X249069Y-124934D01*
X253100Y-114518D01*
Y-127018D01*
G01X264569D02*
X258369D01*
Y-114518D01*
X264569D01*
G01X262089Y-120559D02*
X258369D01*
G01X273869Y-114518D02*
Y-127018D01*
G01X270304Y-114518D02*
X277434D01*
G01X289369Y-127018D02*
X283169D01*
Y-114518D01*
X289369D01*
G01X286889Y-120559D02*
X283169D01*
G01X295569Y-127018D02*
Y-114518D01*
X299444D01*
X300684Y-115143D01*
X301459Y-115976D01*
X301769Y-117643D01*
X301459Y-119309D01*
X300529Y-120351D01*
X299444Y-120976D01*
X295569D01*
G01X299444D02*
X301769Y-127018D01*
G01X307814Y-125352D02*
X309054Y-126393D01*
X310449Y-127018D01*
X311689D01*
X312929Y-126393D01*
X313859Y-125352D01*
X314324Y-123893D01*
X314015Y-122435D01*
X313239Y-121185D01*
X311844Y-120351D01*
X309984Y-119934D01*
X308899Y-119101D01*
X308434Y-117643D01*
X308744Y-116184D01*
X309519Y-115143D01*
X310604Y-114518D01*
X311689D01*
X312774Y-114934D01*
X313704Y-115976D01*
G01X-14431Y-133268D02*
Y-183268D01*
G01X-14741Y-101427D02*
Y-88927D01*
X-11641D01*
X-10401Y-89552D01*
X-9471Y-90385D01*
X-8696Y-91635D01*
X-8076Y-93094D01*
X-7921Y-95177D01*
X-8076Y-97261D01*
X-8696Y-98719D01*
X-9471Y-99969D01*
X-10401Y-100802D01*
X-11641Y-101427D01*
X-14741D01*
G01X-2031D02*
Y-88927D01*
X1844D01*
X3084Y-89552D01*
X3859Y-90385D01*
X4169Y-92052D01*
X3859Y-93719D01*
X2929Y-94760D01*
X1844Y-95386D01*
X-2031D01*
G01X1844D02*
X4169Y-101427D01*
G01X11609Y-88927D02*
X15329D01*
G01X13469D02*
Y-101427D01*
G01X11609D02*
X15329D01*
G01X22769Y-88927D02*
Y-101427D01*
X28969D01*
G01X35169Y-88927D02*
Y-101427D01*
X41369D01*
G01X66479Y-89969D02*
X65549Y-89344D01*
X64465Y-88927D01*
X63224D01*
X61829Y-89552D01*
X60744Y-90594D01*
X59969Y-91844D01*
X59349Y-93927D01*
X59194Y-95802D01*
X59504Y-97677D01*
X59969Y-98927D01*
X60899Y-100178D01*
X61984Y-101011D01*
X63069Y-101427D01*
X64154D01*
X65239Y-101011D01*
X66169Y-100386D01*
X66944Y-99553D01*
G01X72214Y-101427D02*
Y-88927D01*
G01X78724D02*
Y-101427D01*
G01Y-95177D02*
X72214D01*
G01X83994Y-101427D02*
X87869Y-88927D01*
X91744Y-101427D01*
G01X90349Y-97052D02*
X85389D01*
G01X97169Y-101427D02*
Y-88927D01*
X101044D01*
X102284Y-89552D01*
X103059Y-90385D01*
X103369Y-92052D01*
X103059Y-93719D01*
X102129Y-94760D01*
X101044Y-95386D01*
X97169D01*
G01X101044D02*
X103369Y-101427D01*
G01X112669Y-88927D02*
Y-101427D01*
G01X109104Y-88927D02*
X116234D01*
G01X125069Y-101844D02*
X124759Y-101635D01*
Y-101219D01*
X125069Y-101011D01*
X125380Y-101219D01*
Y-101635D01*
X125069Y-101844D01*
G01Y-96219D02*
X124759Y-96011D01*
Y-95594D01*
X125069Y-95386D01*
X125380Y-95594D01*
Y-96011D01*
X125069Y-96219D01*
G01X149869Y-88927D02*
Y-101427D01*
G01X146304Y-88927D02*
X153434D01*
G01X162269Y-101427D02*
X161029Y-101219D01*
X159944Y-100386D01*
X159014Y-99135D01*
X158394Y-97677D01*
X158084Y-96011D01*
Y-94344D01*
X158394Y-92677D01*
X159014Y-91219D01*
X159944Y-89969D01*
X161029Y-89135D01*
X162269Y-88927D01*
X163509Y-89135D01*
X164594Y-89969D01*
X165524Y-91219D01*
X166144Y-92677D01*
X166454Y-94344D01*
Y-96011D01*
X166144Y-97677D01*
X165524Y-99135D01*
X164594Y-100386D01*
X163509Y-101219D01*
X162269Y-101427D01*
G01X171569D02*
Y-88927D01*
X175289D01*
X176529Y-89552D01*
X177459Y-91011D01*
X177769Y-92677D01*
X177459Y-94344D01*
X176684Y-95594D01*
X175289Y-96219D01*
X171569D01*
G01X199469Y-88927D02*
Y-101427D01*
G01X197299Y-93094D02*
X201639D01*
G01X211869Y-101427D02*
X210939Y-101219D01*
X210009Y-100386D01*
X209389Y-98927D01*
X209079Y-97261D01*
X209389Y-95594D01*
X210009Y-94135D01*
X210939Y-93302D01*
X211869Y-93094D01*
X212799Y-93302D01*
X213729Y-94135D01*
X214349Y-95594D01*
X214504Y-97261D01*
X214349Y-98927D01*
X213729Y-100386D01*
X212799Y-101219D01*
X211869Y-101427D01*
G01X237909Y-94760D02*
X238529Y-94135D01*
X238994Y-93094D01*
X239304Y-91635D01*
X238994Y-90385D01*
X238374Y-89552D01*
X237289Y-88927D01*
X233104D01*
Y-101427D01*
X238219D01*
X239304Y-100594D01*
X239924Y-99344D01*
X240234Y-97885D01*
X239924Y-96428D01*
X238994Y-95177D01*
X237909Y-94760D01*
X233104D01*
G01X249069Y-101427D02*
X247829Y-101219D01*
X246744Y-100386D01*
X245814Y-99135D01*
X245194Y-97677D01*
X244884Y-96011D01*
Y-94344D01*
X245194Y-92677D01*
X245814Y-91219D01*
X246744Y-89969D01*
X247829Y-89135D01*
X249069Y-88927D01*
X250309Y-89135D01*
X251394Y-89969D01*
X252324Y-91219D01*
X252944Y-92677D01*
X253254Y-94344D01*
Y-96011D01*
X252944Y-97677D01*
X252324Y-99135D01*
X251394Y-100386D01*
X250309Y-101219D01*
X249069Y-101427D01*
G01X261469Y-88927D02*
Y-101427D01*
G01X257904Y-88927D02*
X265034D01*
G01X273869D02*
Y-101427D01*
G01X270304Y-88927D02*
X277434D01*
G01X286269Y-101427D02*
X285029Y-101219D01*
X283944Y-100386D01*
X283014Y-99135D01*
X282394Y-97677D01*
X282084Y-96011D01*
Y-94344D01*
X282394Y-92677D01*
X283014Y-91219D01*
X283944Y-89969D01*
X285029Y-89135D01*
X286269Y-88927D01*
X287509Y-89135D01*
X288594Y-89969D01*
X289524Y-91219D01*
X290144Y-92677D01*
X290454Y-94344D01*
Y-96011D01*
X290144Y-97677D01*
X289524Y-99135D01*
X288594Y-100386D01*
X287509Y-101219D01*
X286269Y-101427D01*
G01X294639D02*
Y-88927D01*
X298669Y-99344D01*
X302700Y-88927D01*
Y-101427D01*
G01X0Y0D02*
Y157480D01*
X157480D01*
Y0D01*
X0D01*
G01Y167323D02*
Y185039D01*
G01X58515Y175197D02*
X0D01*
G01X15748Y177657D02*
X0Y175197D01*
X15748Y172736D01*
Y177657D01*
G01X8974Y-152018D02*
Y-139518D01*
X14865D01*
G01X12694Y-145559D02*
X8974D01*
G01X22459Y-139518D02*
X26179D01*
G01X24319D02*
Y-152018D01*
G01X22459D02*
X26179D01*
G01X33154D02*
Y-139518D01*
X40284Y-152018D01*
Y-139518D01*
G01X47259D02*
X50979D01*
G01X49119D02*
Y-152018D01*
G01X47259D02*
X50979D01*
G01X58264Y-150352D02*
X59504Y-151393D01*
X60899Y-152018D01*
X62139D01*
X63379Y-151393D01*
X64309Y-150352D01*
X64774Y-148893D01*
X64465Y-147435D01*
X63689Y-146185D01*
X62294Y-145351D01*
X60434Y-144934D01*
X59349Y-144101D01*
X58884Y-142643D01*
X59194Y-141184D01*
X59969Y-140143D01*
X61054Y-139518D01*
X62139D01*
X63224Y-139934D01*
X64154Y-140976D01*
G01X70664Y-152018D02*
Y-139518D01*
G01X77174D02*
Y-152018D01*
G01Y-145768D02*
X70664D01*
G01X89419Y-152018D02*
X83219D01*
Y-139518D01*
X89419D01*
G01X86939Y-145559D02*
X83219D01*
G01X95309Y-152018D02*
Y-139518D01*
X98409D01*
X99649Y-140143D01*
X100579Y-140976D01*
X101354Y-142226D01*
X101974Y-143685D01*
X102129Y-145768D01*
X101974Y-147851D01*
X101354Y-149309D01*
X100579Y-150560D01*
X99649Y-151393D01*
X98409Y-152018D01*
X95309D01*
G01X106469Y-156184D02*
X115769D01*
G01X120264Y-150352D02*
X121504Y-151393D01*
X122899Y-152018D01*
X124139D01*
X125379Y-151393D01*
X126309Y-150352D01*
X126774Y-148893D01*
X126465Y-147435D01*
X125689Y-146185D01*
X124294Y-145351D01*
X122434Y-144934D01*
X121349Y-144101D01*
X120884Y-142643D01*
X121194Y-141184D01*
X121969Y-140143D01*
X123054Y-139518D01*
X124139D01*
X125224Y-139934D01*
X126154Y-140976D01*
G01X134059Y-139518D02*
X137779D01*
G01X135919D02*
Y-152018D01*
G01X134059D02*
X137779D01*
G01X145374Y-139518D02*
X151265D01*
X145374Y-152018D01*
X151265D01*
G01X163819D02*
X157619D01*
Y-139518D01*
X163819D01*
G01X161339Y-145559D02*
X157619D01*
G01X73919Y-164518D02*
X72679Y-164934D01*
X71749Y-165976D01*
X71129Y-167226D01*
X70664Y-168893D01*
X70509Y-170768D01*
X70664Y-172643D01*
X71129Y-174309D01*
X71749Y-175560D01*
X72679Y-176601D01*
X73919Y-177018D01*
X75159Y-176601D01*
X76089Y-175560D01*
X76709Y-174309D01*
X77174Y-172643D01*
X77329Y-170768D01*
X77174Y-168893D01*
X76709Y-167226D01*
X76089Y-165976D01*
X75159Y-164934D01*
X73919Y-164518D01*
G01X86319Y-177434D02*
X86009Y-177226D01*
Y-176809D01*
X86319Y-176601D01*
X86630Y-176809D01*
Y-177226D01*
X86319Y-177434D01*
G01X100579Y-177018D02*
Y-164518D01*
X94844Y-173476D01*
X102594D01*
G01X74400Y168947D02*
Y181447D01*
X68665Y172489D01*
X76415D01*
G01X84940Y181447D02*
X83700Y181030D01*
X82770Y179989D01*
X82150Y178739D01*
X81685Y177072D01*
X81530Y175197D01*
X81685Y173322D01*
X82150Y171655D01*
X82770Y170405D01*
X83700Y169363D01*
X84940Y168947D01*
X86180Y169363D01*
X87110Y170405D01*
X87730Y171655D01*
X88195Y173322D01*
X88350Y175197D01*
X88195Y177072D01*
X87730Y178739D01*
X87110Y179989D01*
X86180Y181030D01*
X84940Y181447D01*
G01X98965Y175197D02*
X157480D01*
G01X141732Y172736D02*
X157480Y175197D01*
X141732Y177657D01*
Y172736D01*
G01X167323Y0D02*
X194882D01*
G01X180699Y74459D02*
Y86959D01*
X174964Y78000D01*
X182715D01*
G01X191239Y86959D02*
X189999Y86542D01*
X189069Y85500D01*
X188449Y84250D01*
X187984Y82583D01*
X187830Y80709D01*
X187984Y78833D01*
X188449Y77167D01*
X189069Y75917D01*
X189999Y74875D01*
X191239Y74459D01*
X192479Y74875D01*
X193409Y75917D01*
X194030Y77167D01*
X194494Y78833D01*
X194649Y80709D01*
X194494Y82583D01*
X194030Y84250D01*
X193409Y85500D01*
X192479Y86542D01*
X191239Y86959D01*
G01X157480Y167323D02*
Y185039D01*
G01X167323Y157480D02*
X194882D01*
G01X187069Y-133268D02*
Y-183268D01*
G01X185039Y65084D02*
Y0D01*
G01X182579Y15748D02*
X185039Y0D01*
X187500Y15748D01*
X182579D01*
G01X185039Y96333D02*
Y157480D01*
G01X187500Y141732D02*
X185039Y157480D01*
X182579Y141732D01*
X187500D01*
G01X216519Y-177018D02*
Y-164518D01*
X220239D01*
X221479Y-165143D01*
X222409Y-166601D01*
X222719Y-168268D01*
X222409Y-169934D01*
X221634Y-171185D01*
X220239Y-171810D01*
X216519D01*
G01X228919Y-164518D02*
Y-177018D01*
X235119D01*
G01X240544D02*
X244419Y-164518D01*
X248294Y-177018D01*
G01X246899Y-172643D02*
X241939D01*
G01X256819Y-164518D02*
Y-177018D01*
G01X253254Y-164518D02*
X260384D01*
G01X272319Y-177018D02*
X266119D01*
Y-164518D01*
X272319D01*
G01X269839Y-170559D02*
X266119D01*
G01X278209Y-177018D02*
Y-164518D01*
X281309D01*
X282549Y-165143D01*
X283479Y-165976D01*
X284254Y-167226D01*
X284874Y-168685D01*
X285029Y-170768D01*
X284874Y-172851D01*
X284254Y-174309D01*
X283479Y-175560D01*
X282549Y-176393D01*
X281309Y-177018D01*
X278209D01*
G01X216519Y-152018D02*
Y-139518D01*
X220239D01*
X221479Y-140143D01*
X222409Y-141601D01*
X222719Y-143268D01*
X222409Y-144934D01*
X221634Y-146185D01*
X220239Y-146810D01*
X216519D01*
G01X228919Y-139518D02*
Y-152018D01*
X235119D01*
G01X240544D02*
X244419Y-139518D01*
X248294Y-152018D01*
G01X246899Y-147643D02*
X241939D01*
G01X256819Y-139518D02*
Y-152018D01*
G01X253254Y-139518D02*
X260384D01*
G01X272319Y-152018D02*
X266119D01*
Y-139518D01*
X272319D01*
G01X269839Y-145559D02*
X266119D01*
G01X278209Y-152018D02*
Y-139518D01*
X281309D01*
X282549Y-140143D01*
X283479Y-140976D01*
X284254Y-142226D01*
X284874Y-143685D01*
X285029Y-145768D01*
X284874Y-147851D01*
X284254Y-149309D01*
X283479Y-150560D01*
X282549Y-151393D01*
X281309Y-152018D01*
X278209D01*
G01X314169Y-133268D02*
Y-183268D01*
G01X346719Y-177018D02*
Y-164518D01*
X344859Y-167018D01*
G01Y-177018D02*
X348579D01*
G01X355709Y-174518D02*
X356639Y-175976D01*
X357879Y-176809D01*
X359274Y-177018D01*
X360515Y-176809D01*
X361754Y-175768D01*
X362529Y-174518D01*
X362684Y-173268D01*
X362374Y-171810D01*
X361289Y-170768D01*
X360204Y-170351D01*
X358809D01*
G01X360204D02*
X361134Y-169726D01*
X361909Y-168685D01*
X362219Y-167435D01*
X361909Y-166184D01*
X361134Y-165143D01*
X359739Y-164518D01*
X358344Y-164726D01*
X356949Y-165559D01*
G01X340519Y-152018D02*
X339279Y-151809D01*
X338194Y-150976D01*
X337264Y-149726D01*
X336644Y-148268D01*
X336334Y-146601D01*
Y-144934D01*
X336644Y-143268D01*
X337264Y-141809D01*
X338194Y-140559D01*
X339279Y-139726D01*
X340519Y-139518D01*
X341759Y-139726D01*
X342844Y-140559D01*
X343774Y-141809D01*
X344394Y-143268D01*
X344704Y-144934D01*
Y-146601D01*
X344394Y-148268D01*
X343774Y-149726D01*
X342844Y-150976D01*
X341759Y-151809D01*
X340519Y-152018D01*
G01X341759Y-148684D02*
X343619Y-152018D01*
G01X352919Y-139518D02*
Y-152018D01*
G01X349354Y-139518D02*
X356484D01*
G01X365319Y-152018D02*
Y-146393D01*
X362219Y-139518D01*
G01X368419D02*
X365319Y-146393D01*
M02*
